<?xml version="1.0" standalone="no"?>
<!DOCTYPE svg PUBLIC "-//W3C//DTD SVG 20010904//EN"
 "http://www.w3.org/TR/2001/REC-SVG-20010904/DTD/svg10.dtd">
<svg version="1.0" xmlns="http://www.w3.org/2000/svg"
 width="512.000000pt" height="512.000000pt" viewBox="0 0 512.000000 512.000000"
 preserveAspectRatio="xMidYMid meet">
<metadata>
Created by potrace 1.16, written by Peter Selinger 2001-2019
</metadata>
<g transform="translate(0.000000,512.000000) scale(0.100000,-0.100000)"
fill="#000000" stroke="none">
<path d="M1065 5106 c-63 -20 -104 -45 -158 -95 -41 -37 -63 -72 -117 -186
-448 -936 -588 -2212 -370 -3366 78 -415 209 -828 370 -1164 75 -158 124 -215
228 -263 l57 -27 1485 0 1485 0 57 27 c104 48 153 105 228 263 448 936 588
2212 370 3366 -78 415 -209 828 -370 1164 -75 158 -124 215 -228 263 l-57 27
-1470 2 c-1166 1 -1478 -1 -1510 -11z m207 -173 c-11 -21 -39 -95 -63 -165
l-44 -128 -142 0 -142 0 44 95 c47 102 69 137 107 172 40 38 114 59 211 62
l47 1 -18 -37z m723 -25 c-7 -35 -19 -109 -26 -165 l-12 -103 -309 0 c-171 0
-308 4 -308 9 0 13 68 198 85 231 17 32 69 75 100 83 11 2 124 5 251 6 l232 1
-13 -62z m955 36 c11 -28 34 -154 45 -246 l7 -58 -442 0 -442 0 7 58 c11 92
34 218 45 246 l10 26 380 0 380 0 10 -26z m693 -7 c21 -15 44 -41 52 -57 17
-33 85 -218 85 -231 0 -5 -13 -9 -28 -9 -61 0 -90 -87 -44 -133 22 -22 28 -22
310 -25 l287 -3 24 -67 c13 -37 26 -73 29 -79 3 -10 -361 -13 -1798 -13 -1437
0 -1801 3 -1798 13 3 6 16 42 29 80 l24 67 1311 0 c931 0 1320 3 1343 11 54
19 69 83 29 126 -21 22 -27 23 -178 23 l-157 0 -12 103 c-7 56 -19 130 -26
165 l-13 63 247 -3 248 -3 36 -28z m389 4 c38 -17 70 -44 106 -92 6 -8 32 -59
56 -112 l45 -97 -142 0 -142 0 -44 128 c-24 70 -53 145 -63 166 l-20 39 81 -7
c44 -3 100 -15 123 -25z m-2992 -785 c0 -2 -11 -57 -24 -122 -181 -890 -181
-2058 0 -2948 13 -65 24 -120 24 -122 0 -2 -76 -4 -169 -4 -167 0 -169 0 -174
23 -3 12 -28 110 -55 217 -121 474 -169 915 -159 1475 9 496 64 904 183 1343
l38 142 168 0 c92 0 168 -2 168 -4z m860 -38 c0 -24 -4 -92 -10 -153 -34 -393
-44 -725 -44 -1405 0 -680 10 -1012 44 -1405 6 -60 10 -129 10 -152 l0 -43
-149 0 c-154 0 -205 -9 -221 -40 -16 -31 -11 -72 12 -97 l21 -23 1400 0 c1115
0 1398 -3 1395 -13 -3 -6 -16 -42 -29 -80 l-24 -67 -1745 0 -1745 0 -24 68
c-13 37 -26 73 -29 80 -3 9 55 12 271 12 254 0 277 1 298 19 16 13 23 29 23
55 0 53 -29 78 -97 84 l-54 4 -32 167 c-90 471 -131 915 -131 1431 0 516 41
960 132 1433 l32 167 348 0 348 0 0 -42z m1166 -96 c9 -114 13 -136 32 -154
31 -31 88 -30 114 3 19 22 20 33 13 157 l-7 132 349 0 349 0 32 -167 c91 -473
132 -917 132 -1433 0 -516 -41 -960 -132 -1432 l-32 -168 -348 0 -348 0 0 43
c0 23 4 92 10 152 33 389 44 726 44 1390 0 374 -5 771 -11 883 -10 190 -12
205 -34 228 -24 25 -66 32 -99 14 -33 -18 -37 -57 -27 -255 6 -104 11 -494 11
-865 0 -674 -8 -917 -47 -1430 l-12 -155 -495 0 -495 0 -12 155 c-39 514 -47
757 -47 1440 0 421 4 766 12 895 19 332 43 679 47 693 4 10 108 12 497 10
l493 -3 11 -133z m1388 -4 c119 -439 174 -847 183 -1343 10 -560 -38 -1001
-159 -1475 -27 -107 -52 -205 -55 -217 -5 -23 -7 -23 -174 -23 -93 0 -169 2
-169 4 0 2 11 57 24 122 181 890 181 2058 0 2948 -13 65 -24 120 -24 122 0 2
76 4 168 4 l168 0 38 -142z m-3245 -3666 c24 -70 53 -145 64 -166 l19 -39 -81
7 c-116 9 -168 36 -229 117 -6 8 -32 59 -56 112 l-45 97 142 0 142 0 44 -128z
m760 26 c7 -57 19 -131 26 -166 l13 -63 -247 3 -248 3 -36 28 c-21 15 -44 41
-52 57 -17 33 -85 218 -85 231 0 5 137 9 308 9 l309 0 12 -102z m1026 45 c-11
-93 -34 -219 -45 -247 l-10 -26 -380 0 -380 0 -10 26 c-11 28 -34 154 -45 247
l-7 57 442 0 442 0 -7 -57z m785 48 c0 -13 -68 -198 -85 -231 -8 -16 -31 -42
-52 -57 l-36 -28 -248 -3 -247 -3 13 63 c7 35 19 109 26 166 l12 102 309 0
c171 0 308 -4 308 -9z m414 -88 c-24 -53 -50 -104 -56 -112 -61 -81 -113 -108
-229 -117 l-81 -7 20 39 c10 21 39 96 63 166 l44 128 142 0 142 0 -45 -97z"/>
</g>
</svg>
