<?xml version="1.0" standalone="no"?>
<!DOCTYPE svg PUBLIC "-//W3C//DTD SVG 20010904//EN"
 "http://www.w3.org/TR/2001/REC-SVG-20010904/DTD/svg10.dtd">
<svg version="1.0" xmlns="http://www.w3.org/2000/svg"
 width="512.000000pt" height="512.000000pt" viewBox="0 0 512.000000 512.000000"
 preserveAspectRatio="xMidYMid meet">

<g transform="translate(0.000000,512.000000) scale(0.100000,-0.100000)"
fill="#ccc" stroke="none">
<path d="M940 5068 c-17 -29 -73 -138 -125 -243 -269 -544 -428 -1119 -491
-1774 -24 -241 -24 -741 0 -982 63 -655 222 -1230 491 -1774 52 -104 108 -214
125 -242 l30 -53 1588 0 1588 0 61 113 c402 737 603 1553 603 2447 0 894 -201
1710 -603 2448 l-61 112 -1588 0 -1588 0 -30 -52z m670 -252 c0 -3 -18 -85
-40 -183 -21 -98 -49 -231 -61 -295 l-21 -118 -304 0 -303 0 25 68 c49 128 96
238 166 385 l71 147 234 0 c128 0 233 -2 233 -4z m1612 -116 c37 -154 100
-471 95 -476 -2 -2 -346 -3 -764 -2 l-760 3 28 145 c16 80 45 214 65 298 l36
152 636 -2 637 -3 27 -115z m823 -33 c65 -134 159 -358 180 -425 l6 -22 -302
2 -303 3 -28 150 c-24 129 -81 394 -93 433 -3 9 47 12 231 12 l235 0 74 -153z
m289 -764 c13 -42 66 -259 66 -270 0 -10 -376 -13 -1846 -13 -1473 0 -1845 3
-1842 13 3 6 20 74 39 150 l33 137 1772 0 c1680 0 1773 -1 1778 -17z m-2958
-673 c-23 -291 -23 -1049 0 -1340 l7 -90 -365 0 -365 0 -17 153 c-48 432 -48
782 0 1215 l17 152 365 0 365 0 -7 -90z m2058 58 c12 -74 26 -480 26 -728 0
-248 -14 -654 -26 -727 l-5 -33 -873 0 -873 0 -7 96 c-4 53 -11 224 -15 380
-8 271 0 741 15 948 l7 96 873 0 873 0 5 -32z m1026 25 c0 -5 5 -39 10 -77 27
-187 41 -418 41 -676 0 -258 -14 -489 -41 -676 -5 -38 -10 -72 -10 -76 0 -5
-164 -8 -364 -8 l-364 0 4 38 c11 106 24 486 24 722 0 236 -13 616 -24 723
l-4 37 364 0 c200 0 364 -3 364 -7z m-60 -1825 c0 -12 -53 -229 -66 -270 -5
-17 -98 -18 -1778 -18 l-1772 0 -33 138 c-19 75 -36 143 -39 150 -3 9 369 12
1842 12 1470 0 1846 -3 1846 -12z m-2891 -705 c12 -65 40 -198 61 -296 22 -98
40 -180 40 -183 0 -2 -105 -4 -233 -4 l-234 0 -71 148 c-70 146 -117 256 -166
385 l-25 67 303 0 304 0 21 -117z m1811 109 c0 -17 -72 -364 -98 -472 l-27
-115 -637 -3 -636 -2 -36 152 c-31 131 -72 325 -88 421 l-5 27 763 0 c420 0
764 -3 764 -8z m910 4 c0 -27 -137 -349 -211 -498 l-49 -98 -234 0 c-218 0
-234 1 -230 18 48 206 67 291 89 412 14 80 28 151 30 158 3 9 73 12 305 12
165 0 300 -2 300 -4z"/>
</g>
</svg>
