<svg id="Layer_1" data-name="Layer 1" xmlns="http://www.w3.org/2000/svg" viewBox="0 0 450.4 512"><defs><style>.cls-1{fill:#fff;}</style></defs><path class="cls-1" d="M63.4,5.2C61.7,8.1,56.1,19,50.9,29.5,24,83.9,8.1,141.4,1.8,206.9-.6,231-.6,281,1.8,305.1c6.3,65.5,22.2,123,49.1,177.4,5.2,10.4,10.8,21.4,12.5,24.2l3,5.3H384l6.1-11.3Q450.4,390.15,450.4,256T390.1,11.2L384,0H66.4Zm67,25.2c0,.3-1.8,8.5-4,18.3s-4.9,23.1-6.1,29.5L118.2,90H57.5L60,83.2c4.9-12.8,9.6-23.8,16.6-38.5L83.7,30h23.4C119.9,30,130.4,30.2,130.4,30.4ZM291.6,42c3.7,15.4,10,47.1,9.5,47.6-.2.2-34.6.3-76.4.2l-76-.3L151.5,75c1.6-8,4.5-21.4,6.5-29.8L161.6,30l63.6.2,63.7.3Zm82.3,3.3c6.5,13.4,15.9,35.8,18,42.5l.6,2.2-30.2-.2L332,89.5l-2.8-15c-2.4-12.9-8.1-39.4-9.3-43.3-.3-.9,4.7-1.2,23.1-1.2h23.5Zm28.9,76.4c1.3,4.2,6.6,25.9,6.6,27S371.8,150,224.8,150c-147.3,0-184.5-.3-184.2-1.3.3-.6,2-7.4,3.9-15L47.8,120H225C393,120,402.3,120.1,402.8,121.7ZM107,189c-2.3,29.1-2.3,104.9,0,134l.7,9h-73L33,316.7c-4.8-43.2-4.8-78.2,0-121.5L34.7,180h73Zm205.8-5.8c1.2,7.4,2.6,48,2.6,72.8s-1.4,65.4-2.6,72.7l-.5,3.3H137.7l-.7-9.6c-.4-5.3-1.1-22.4-1.5-38-.8-27.1,0-74.1,1.5-94.8l.7-9.6H312.3Zm102.6-2.5c0,.5.5,3.9,1,7.7,2.7,18.7,4.1,41.8,4.1,67.6s-1.4,48.9-4.1,67.6c-.5,3.8-1,7.2-1,7.6s-16.4.8-36.4.8H342.6l.4-3.8c1.1-10.6,2.4-48.6,2.4-72.2s-1.3-61.6-2.4-72.3l-.4-3.7H379C399,180,415.4,180.3,415.4,180.7Zm-6,182.5c0,1.2-5.3,22.9-6.6,27-.5,1.7-9.8,1.8-177.8,1.8H47.8l-3.3-13.8c-1.9-7.5-3.6-14.3-3.9-15-.3-.9,36.9-1.2,184.2-1.2C371.8,362,409.4,362.3,409.4,363.2ZM120.3,433.7c1.2,6.5,4,19.8,6.1,29.6s4,18,4,18.3-10.5.4-23.3.4H83.7l-7.1-14.8c-7-14.6-11.7-25.6-16.6-38.5L57.5,422h60.7Zm181.1-10.9c0,1.7-7.2,36.4-9.8,47.2l-2.7,11.5-63.7.3-63.6.2L158,466.8c-3.1-13.1-7.2-32.5-8.8-42.1l-.5-2.7H225C267,422,301.4,422.3,301.4,422.8Zm91-.4c0,2.7-13.7,34.9-21.1,49.8l-4.9,9.8H343c-21.8,0-23.4-.1-23-1.8,4.8-20.6,6.7-29.1,8.9-41.2,1.4-8,2.8-15.1,3-15.8.3-.9,7.3-1.2,30.5-1.2C378.9,422,392.4,422.2,392.4,422.4Z"/></svg>