<svg id="Layer_1" data-name="Layer 1" xmlns="http://www.w3.org/2000/svg" viewBox="0 0 399.93 511"><defs><style>.cls-1{fill:#fff;}</style></defs><path class="cls-1" d="M57.85,148.45A36.9,36.9,0,0,0,32,168.24c-2.57,5.24-4,6.95-5.67,6.95-4.39,0-13,5-17.87,10.48-11.33,12.52-11.23,29.85.33,42.47,6.2,6.85,12.51,9.73,23.64,10.7S45.76,241.62,47,251.46c.64,4,2,9.31,3.32,11.87,3,6.53,11.23,13.91,18,16.26l5.45,2V287c0,2.89-1.92,49.1-4.27,102.7-5.14,117.45-5.14,113.92-1.72,117.88,2.14,2.46,3.43,3,7.39,3,9,0,11.44-4.92,11.44-22.79V476.85h60.76l.75,12.52c.75,14.54,1.82,18,6,20.11,3.74,2,6.74,2,10.48,0,6-3,6,1.49.65-119.6-2.68-61.61-5.14-112.75-5.57-113.6-.32-1.07.65-3,2.68-5.14a31.13,31.13,0,0,0,.32-42.68c-6-6.63-13.59-10.48-21-10.48-6.84,0-12.51-1.61-14.87-4.17-1.07-1.07-2.24-5.14-2.78-8.88A62.37,62.37,0,0,0,121.39,194c-2.36-5.46-10.27-13.8-15.51-16.16-3.32-1.49-4.6-2.89-6.1-6.74C97.1,164.06,88,154.65,80.52,151.33,73.36,148.23,64.59,147.06,57.85,148.45Zm16.68,24.17C78.92,175.94,80,178,81.27,185s3.43,9.09,10.7,11c7.81,2,9.52,4.06,10.7,12.41,1.39,9.41,3.53,14.12,9.2,20.21,6,6.32,12.41,9.2,23.21,10.17s14.12,3.42,14.12,10.48c0,5.78-2.35,8.77-7.92,10.38-5,1.39-59.37,1.39-64.39,0-5.46-1.5-7.38-4.18-8.45-12-1.29-9.1-3.43-13.91-8.78-19.79-6.2-6.64-11.44-9.1-22-10.06-5.14-.43-10.06-1.5-11.55-2.57a10.46,10.46,0,0,1-4.18-10.8c1-5.24,4-7.17,12.41-8,11.34-1.29,12.84-2.78,15.41-15.09.74-4.06,6.52-10.27,10.59-11.44A15.91,15.91,0,0,1,74.53,172.62ZM139.47,292c.32,5.46.85,15.09,1.17,21.4l.64,11.55H93.79l.64-15.3c.43-8.34.75-18,.75-21.39v-6.1h43.64Zm3.1,69c.43,8,.75,17.86.75,21.93v7.27H90.79L91.44,376c.32-7.71.85-17.66,1.17-21.93l.64-7.71h48.68Zm2.24,54c.33,1.93.86,11.87,1.18,22l.75,18.4-29.31-.22-29.2-.32.21-4.81c.11-2.68.53-12.41,1-21.72L90,411.6h54.24Z"/><path class="cls-1" d="M240.73.81A52,52,0,0,0,204.3,28.66c-3.61,7.38-5.57,9.79-8,9.79-6.17,0-18.36,7.07-25.14,14.75-16,17.61-15.8,42,.45,59.76,8.73,9.63,17.62,13.7,33.27,15,15.81,1.51,18.82,3.92,20.62,17.77.91,5.56,2.86,13.09,4.67,16.7,4.21,9.19,15.81,19.57,25.29,22.88l7.68,2.86v7.53c0,4.07-2.71,69.1-6,144.51-7.22,165.28-7.22,160.32-2.4,165.89,3,3.46,4.81,4.21,10.38,4.21,12.65,0,16.11-6.92,16.11-32.06V462.94h85.5l1.06,17.62c1.05,20.47,2.55,25.29,8.42,28.3,5.27,2.86,9.49,2.86,14.76,0,8.43-4.22,8.43,2.1.9-168.3-3.76-86.7-7.23-158.66-7.83-159.86-.45-1.51.91-4.22,3.77-7.23a43.82,43.82,0,0,0,.45-60.06c-8.43-9.33-19.12-14.75-29.51-14.75-9.63,0-17.61-2.26-20.92-5.87-1.51-1.51-3.16-7.23-3.91-12.5a88.23,88.23,0,0,0-3.77-15.35c-3.31-7.68-14.45-19.42-21.82-22.73-4.67-2.11-6.48-4.06-8.58-9.48C296,22.79,283.18,9.54,272.64,4.88,262.55.51,250.21-1.14,240.73.81Zm23.48,34c6.17,4.67,7.68,7.53,9.48,17.47,2,9.78,4.82,12.79,15.06,15.5,11,2.86,13.39,5.72,15.05,17.46,2,13.25,5,19.87,12.95,28.45,8.42,8.88,17.46,13,32.66,14.3,15.35,1.51,19.87,4.82,19.87,14.75,0,8.13-3.31,12.35-11.14,14.61-7.07,1.95-83.54,1.95-90.62,0-7.68-2.11-10.39-5.87-11.89-16.86-1.81-12.8-4.82-19.57-12.34-27.85-8.73-9.33-16.11-12.8-31-14.15-7.23-.6-14.15-2.11-16.26-3.61-4.67-3-7.08-9.19-5.87-15.21,1.35-7.37,5.57-10.08,17.46-11.29,16-1.8,18.06-3.91,21.68-21.22,1.05-5.72,9.18-14.45,14.9-16.11A22.42,22.42,0,0,1,264.21,34.83Zm91.37,168c.45,7.67,1.21,21.22,1.66,30.1l.9,16.26H291.31l.9-21.53c.6-11.74,1.05-25.29,1.05-30.1V189h61.42ZM360,299.92c.6,11.29,1.05,25.14,1.05,30.86V341H287.09l.9-20c.46-10.84,1.21-24.83,1.66-30.86l.9-10.83H359Zm3.16,76c.45,2.71,1.2,16.71,1.65,31l1.06,25.89-41.25-.3-41.09-.46.3-6.77c.15-3.76.75-17.46,1.35-30.56l.91-23.63h76.32Z"/></svg>