<?xml version="1.0" encoding="UTF-8" standalone="no"?>
<!-- Generator: Adobe Illustrator 23.0.2, SVG Export Plug-In . SVG Version: 6.00 Build 0)  -->

<svg
   xmlns:dc="http://purl.org/dc/elements/1.1/"
   xmlns:cc="http://creativecommons.org/ns#"
   xmlns:rdf="http://www.w3.org/1999/02/22-rdf-syntax-ns#"
   xmlns:svg="http://www.w3.org/2000/svg"
   xmlns="http://www.w3.org/2000/svg"
   xmlns:sodipodi="http://sodipodi.sourceforge.net/DTD/sodipodi-0.dtd"
   xmlns:inkscape="http://www.inkscape.org/namespaces/inkscape"
   version="1.1"
   id="Layer_1"
   x="0px"
   y="0px"
   viewBox="0 0 495.47 268.17001"
   xml:space="preserve"
   sodipodi:docname="Bottle-Exchange-Logo.svg"
   width="495.47"
   height="268.17001"
   inkscape:version="0.92.4 (5da689c313, 2019-01-14)"><metadata
   id="metadata151"><rdf:RDF><cc:Work
       rdf:about=""><dc:format>image/svg+xml</dc:format><dc:type
         rdf:resource="http://purl.org/dc/dcmitype/StillImage" /><dc:title></dc:title></cc:Work></rdf:RDF></metadata><defs
   id="defs149" /><sodipodi:namedview
   pagecolor="#ffffff"
   bordercolor="#666666"
   borderopacity="1"
   objecttolerance="10"
   gridtolerance="10"
   guidetolerance="10"
   inkscape:pageopacity="0"
   inkscape:pageshadow="2"
   inkscape:window-width="1920"
   inkscape:window-height="1013"
   id="namedview147"
   showgrid="false"
   fit-margin-top="0"
   fit-margin-left="0"
   fit-margin-right="0"
   fit-margin-bottom="0"
   inkscape:zoom="0.31961227"
   inkscape:cx="-69.302557"
   inkscape:cy="-93.467483"
   inkscape:window-x="-9"
   inkscape:window-y="-9"
   inkscape:window-maximized="1"
   inkscape:current-layer="Layer_1" />
<style
   type="text/css"
   id="style2">
	.st0{fill:#1A1A1A;}
	.st1{fill:#FFFFFF;}
	.st2{fill:#BB8547;}
	.st3{fill:#A1A3A5;}
	.st4{fill:url(#SVGID_1_);}
	.st5{fill:url(#SVGID_2_);}
	.st6{fill:url(#SVGID_3_);}
	.st7{fill-rule:evenodd;clip-rule:evenodd;fill:#BB8547;}
	.st8{fill-rule:evenodd;clip-rule:evenodd;fill:#A1A3A5;}
	.st9{fill:url(#SVGID_4_);}
	.st10{fill:url(#SVGID_5_);}
	.st11{fill:url(#SVGID_6_);}
</style>



<g
   id="g144"
   transform="translate(-127.26,-365.92)">
	<g
   id="g81">
		<path
   class="st2"
   d="m 143.67,625.88 c 1.42,0 2.52,-0.33 3.28,-0.88 0.77,-0.55 1.2,-1.31 1.2,-2.3 v -0.11 c 0,-0.88 -0.44,-1.64 -1.09,-2.19 -0.77,-0.55 -1.97,-0.88 -3.5,-0.88 h -7.22 v 6.35 h 7.33 z m -1.42,-12.91 c 1.53,0 2.63,-0.22 3.39,-0.66 0.77,-0.55 1.09,-1.31 1.09,-2.3 v -0.11 c 0,-0.88 -0.33,-1.64 -1.09,-2.08 -0.66,-0.55 -1.75,-0.77 -3.17,-0.77 h -6.13 v 5.91 h 5.91 z m -14.99,-13.46 h 17.29 c 2.19,0 3.94,0.22 5.47,0.77 1.53,0.55 2.85,1.31 3.83,2.3 0.66,0.66 1.2,1.42 1.53,2.3 0.44,0.98 0.66,1.97 0.66,3.17 v 0.11 c 0,1.97 -0.55,3.5 -1.53,4.71 -0.98,1.2 -2.19,2.19 -3.72,2.85 2.08,0.66 3.72,1.64 4.92,2.85 1.2,1.31 1.86,3.06 1.86,5.36 v 0.11 c 0,2.95 -1.2,5.25 -3.39,6.89 -2.3,1.64 -5.36,2.52 -9.52,2.52 h -17.4 z m 51.65,26.04 c 1.31,0 2.52,-0.22 3.61,-0.66 1.09,-0.55 1.97,-1.2 2.74,-1.97 0.66,-0.88 1.31,-1.75 1.75,-2.95 0.44,-1.09 0.55,-2.19 0.55,-3.39 v -0.11 c 0,-1.2 -0.11,-2.41 -0.55,-3.5 -0.44,-1.09 -1.09,-2.08 -1.86,-2.95 -0.77,-0.77 -1.64,-1.42 -2.74,-1.97 -1.09,-0.55 -2.3,-0.77 -3.5,-0.77 -1.31,0 -2.52,0.22 -3.61,0.77 -0.98,0.44 -1.86,1.09 -2.63,1.97 -0.77,0.77 -1.42,1.75 -1.75,2.85 -0.44,1.09 -0.66,2.3 -0.66,3.5 v 0.11 c 0,1.2 0.22,2.41 0.66,3.5 0.44,1.09 0.98,1.97 1.75,2.85 0.77,0.88 1.64,1.53 2.74,2.08 1.09,0.42 2.3,0.64 3.5,0.64 z m 0,8.54 c -2.63,0 -5.03,-0.44 -7.33,-1.42 -2.19,-0.88 -4.05,-2.19 -5.69,-3.72 -1.64,-1.64 -2.95,-3.5 -3.83,-5.58 -0.88,-2.08 -1.42,-4.38 -1.42,-6.78 v -0.11 c 0,-2.41 0.55,-4.71 1.42,-6.89 0.88,-2.19 2.19,-4.05 3.83,-5.58 1.64,-1.64 3.61,-2.85 5.8,-3.83 2.3,-0.88 4.71,-1.31 7.33,-1.31 2.63,0 5.03,0.44 7.22,1.31 2.19,0.98 4.16,2.19 5.8,3.83 1.53,1.53 2.85,3.39 3.72,5.47 0.98,2.19 1.42,4.49 1.42,6.89 v 0.11 c 0,2.41 -0.44,4.71 -1.42,6.78 -0.88,2.19 -2.19,4.05 -3.83,5.69 -1.64,1.53 -3.5,2.85 -5.8,3.72 -2.19,0.98 -4.59,1.42 -7.22,1.42 z m 31.4,-26.37 h -10.07 v -8.21 h 29.65 v 8.21 h -10.18 v 25.71 h -9.41 v -25.71 z m 32.07,0 H 232.2 v -8.21 h 29.65 v 8.21 h -10.18 v 25.71 h -9.3 v -25.71 z m 23.63,-8.21 h 9.41 v 25.61 h 16.41 v 8.32 h -25.82 z m 29.88,0 h 27.14 v 7.99 h -17.95 v 5.14 h 16.3 v 7.33 h -16.3 v 5.47 h 18.16 v 7.99 h -27.36 v -33.92 z"
   id="path77"
   inkscape:connector-curvature="0"
   style="fill:#bb8547" />
		<path
   class="st3"
   d="m 341.52,599.51 h 27.25 v 7.99 h -17.95 v 5.14 h 16.2 v 7.33 h -16.2 v 5.47 h 18.16 v 7.99 h -27.47 v -33.92 z m 41.47,16.63 -11.16,-16.63 h 10.83 l 6.02,9.52 6.02,-9.52 h 10.61 l -11.16,16.52 11.6,17.4 h -10.83 l -6.46,-10.29 -6.57,10.29 h -10.5 z m 42.56,17.95 c -2.41,0 -4.6,-0.44 -6.78,-1.31 -2.08,-0.88 -3.94,-2.08 -5.58,-3.72 -1.53,-1.53 -2.74,-3.39 -3.72,-5.47 -0.88,-2.19 -1.31,-4.49 -1.31,-7 v -0.11 c 0,-2.52 0.44,-4.81 1.31,-6.89 0.88,-2.19 2.19,-4.05 3.72,-5.69 1.64,-1.53 3.5,-2.85 5.69,-3.72 2.19,-0.88 4.49,-1.31 7.11,-1.31 1.75,0 3.28,0.11 4.71,0.44 1.42,0.33 2.74,0.88 3.94,1.53 1.2,0.55 2.3,1.31 3.17,2.19 0.98,0.88 1.86,1.86 2.52,2.84 l -7,5.47 c -0.98,-1.2 -2.08,-2.19 -3.17,-2.85 -1.2,-0.77 -2.63,-1.09 -4.27,-1.09 -1.2,0 -2.3,0.22 -3.28,0.66 -0.98,0.55 -1.75,1.2 -2.52,1.97 -0.66,0.77 -1.31,1.75 -1.64,2.85 -0.44,1.09 -0.66,2.3 -0.66,3.5 v 0.11 c 0,1.2 0.22,2.41 0.66,3.5 0.33,1.09 0.98,2.08 1.64,2.95 0.77,0.77 1.53,1.42 2.52,1.86 0.98,0.44 2.08,0.66 3.28,0.66 0.88,0 1.64,0 2.41,-0.22 0.77,-0.22 1.42,-0.55 1.97,-0.88 0.66,-0.33 1.2,-0.77 1.75,-1.31 0.55,-0.44 0.98,-1.09 1.53,-1.64 l 7.11,5.03 c -0.88,1.09 -1.75,2.08 -2.63,3.06 -0.98,0.88 -2.08,1.75 -3.28,2.41 -1.2,0.66 -2.63,1.2 -4.05,1.64 -1.53,0.32 -3.18,0.54 -5.15,0.54 z m 19.04,-34.58 H 454 v 12.69 h 12.04 v -12.69 h 9.41 v 33.92 h -9.41 V 620.52 H 454 v 12.91 h -9.41 z m 56.8,20.57 -3.72,-9.63 -3.83,9.63 z m -8.21,-20.79 h 9.08 l 14.44,34.14 h -10.07 l -2.52,-6.13 H 491.1 l -2.41,6.13 h -9.96 z m 26.81,0.22 h 8.75 l 14.01,17.95 v -17.95 h 9.19 v 33.92 h -8.21 l -14.44,-18.6 v 18.6 h -9.3 z m 55.26,34.58 c -2.63,0 -5.03,-0.44 -7.33,-1.31 -2.19,-0.88 -4.16,-2.08 -5.8,-3.61 -1.64,-1.53 -2.95,-3.39 -3.83,-5.58 -0.98,-2.08 -1.42,-4.49 -1.42,-7 v -0.11 c 0,-2.52 0.44,-4.81 1.31,-6.89 0.98,-2.19 2.19,-4.05 3.83,-5.69 1.64,-1.53 3.5,-2.85 5.8,-3.72 2.19,-0.88 4.6,-1.31 7.22,-1.31 3.06,0 5.58,0.44 7.77,1.31 2.19,0.88 4.16,2.08 6.02,3.61 l -5.58,6.57 c -1.2,-0.98 -2.41,-1.75 -3.72,-2.3 -1.31,-0.55 -2.74,-0.88 -4.38,-0.88 -1.31,0 -2.41,0.22 -3.5,0.77 -0.98,0.44 -1.97,1.09 -2.74,1.97 -0.77,0.88 -1.31,1.86 -1.75,2.95 -0.55,1.09 -0.77,2.3 -0.77,3.61 v 0.11 c 0,1.31 0.22,2.63 0.77,3.83 0.44,1.09 1.09,2.08 1.86,2.95 0.88,0.77 1.86,1.42 2.95,1.86 1.09,0.55 2.3,0.77 3.72,0.77 2.19,0 3.94,-0.44 5.36,-1.42 v -4.16 h -6.68 v -6.78 h 15.65 v 15.21 c -1.86,1.53 -3.94,2.74 -6.46,3.72 -2.39,0.97 -5.13,1.52 -8.3,1.52 z m 20.02,-34.58 h 27.14 v 7.99 h -17.95 v 5.14 h 16.3 v 7.33 h -16.3 v 5.47 h 18.27 v 7.99 h -27.47 v -33.92 z"
   id="path79"
   inkscape:connector-curvature="0"
   style="fill:#a1a3a5" />
	</g>
	<g
   id="g142">
		<g
   id="g134">
			<g
   id="g98">
				<linearGradient
   id="SVGID_4_"
   gradientUnits="userSpaceOnUse"
   x1="343.74081"
   y1="484.01791"
   x2="394.9437"
   y2="486.4679">
					<stop
   offset="0"
   style="stop-color:#BB8547"
   id="stop83" />
					<stop
   offset="0.4492"
   style="stop-color:#BB8547"
   id="stop85" />
					<stop
   offset="0.4693"
   style="stop-color:#B88952"
   id="stop87" />
					<stop
   offset="0.5823"
   style="stop-color:#A79C8E"
   id="stop89" />
					<stop
   offset="0.6364"
   style="stop-color:#A1A3A5"
   id="stop91" />
					<stop
   offset="1"
   style="stop-color:#A1A3A5"
   id="stop93" />
				</linearGradient>
				<path
   class="st9"
   d="m 350.93,488.37 c 0.32,0.45 0.18,34.6 0.07,54.03 -1.47,-0.11 -2.93,-0.26 -4.38,-0.45 -8.73,-1.13 -17.17,-3.5 -25.1,-7.05 0.07,-12.24 0.29,-51.51 -0.02,-51.94 -0.39,-0.52 -0.61,-1.14 -0.61,-1.14 0,0 0.04,-4.41 0,-6.26 -0.01,-0.71 0.09,-1.18 0.21,-1.5 0.19,-0.5 0.45,-0.59 0.45,-0.59 l 0.48,-0.34 h 0.01 l 9.79,-6.95 -0.35,-0.41 c -0.44,-0.58 0.25,-1.35 0.5,-2.03 0.23,-0.69 -0.45,-2.4 -0.45,-2.4 -1.1,-5.06 -0.04,-11.91 1.13,-15.96 1.16,-4.03 -0.2,-5.76 -0.18,-6.29 0.04,-0.56 0.31,-5.5 0.1,-5.93 -0.2,-0.46 0.15,-3.03 0.1,-4.6 -0.04,-2.51 5.35,-2.55 6.92,-2.57 h 3.57 c 1.59,0.02 6.98,0.07 6.91,2.57 -0.01,1.57 0.31,4.14 0.11,4.6 -0.21,0.43 0.08,5.36 0.1,5.93 0.04,0.53 -1.33,2.26 -0.17,6.29 1.16,4.04 2.24,10.9 1.14,15.96 0,0 -0.69,1.72 -0.45,2.4 0.25,0.68 0.93,1.45 0.48,2.03 l -0.34,0.41 3.79,2.69 3.79,2.69 -7.53,5.34 c 0,0 -0.83,0.27 -0.8,2.53 0.05,2.23 0,7.57 0,7.57 0,0 0.25,0.74 0.73,1.37 z"
   id="path96"
   inkscape:connector-curvature="0"
   style="fill:url(#SVGID_4_)" />
			</g>
			<g
   id="g115">
				<linearGradient
   id="SVGID_5_"
   gradientUnits="userSpaceOnUse"
   x1="344.09421"
   y1="476.63141"
   x2="395.29709"
   y2="479.0813">
					<stop
   offset="0"
   style="stop-color:#BB8547"
   id="stop100" />
					<stop
   offset="0.4492"
   style="stop-color:#BB8547"
   id="stop102" />
					<stop
   offset="0.4693"
   style="stop-color:#B88952"
   id="stop104" />
					<stop
   offset="0.5823"
   style="stop-color:#A79C8E"
   id="stop106" />
					<stop
   offset="0.6364"
   style="stop-color:#A1A3A5"
   id="stop108" />
					<stop
   offset="1"
   style="stop-color:#A1A3A5"
   id="stop110" />
				</linearGradient>
				<path
   class="st10"
   d="m 429.09,481.81 c 0,0 -0.2,0.62 -0.58,1.14 -0.18,0.26 -0.18,13.4 -0.15,26.85 -4.84,6.01 -10.42,11.2 -16.69,15.51 l -0.14,0.09 c -2.65,1.94 -5.39,3.72 -8.2,5.34 -1.44,0.83 -2.9,1.62 -4.38,2.37 -0.09,-19.38 -0.15,-44.35 0.12,-44.74 0.45,-0.63 0.7,-1.37 0.7,-1.37 0,0 -0.02,-5.34 0,-7.57 0.05,-2.26 -0.77,-2.53 -0.77,-2.53 l -7.53,-5.35 3.79,-2.68 3.79,-2.69 -0.35,-0.41 c -0.44,-0.58 0.25,-1.35 0.5,-2.03 0.23,-0.69 -0.46,-2.4 -0.46,-2.4 -1.1,-5.06 -0.04,-11.91 1.14,-15.96 1.16,-4.03 -0.2,-5.76 -0.18,-6.29 0.04,-0.56 0.31,-5.5 0.1,-5.93 -0.21,-0.46 0.15,-3.03 0.1,-4.6 -0.04,-2.51 5.34,-2.55 6.92,-2.57 h 3.56 c 1.6,0.02 6.99,0.07 6.92,2.57 -0.02,1.57 0.31,4.14 0.1,4.6 -0.2,0.43 0.09,5.36 0.1,5.93 0.04,0.53 -1.32,2.26 -0.16,6.29 1.15,4.04 2.24,10.9 1.14,15.96 0,0 -0.69,1.72 -0.46,2.4 0.25,0.68 0.94,1.45 0.48,2.03 l -0.33,0.41 3.82,2.71 4.77,3.38 1.69,1.2 c 0,0 0.69,0.23 0.64,2.09 -0.03,1.85 0,6.25 0,6.25 z"
   id="path113"
   inkscape:connector-curvature="0"
   style="fill:url(#SVGID_5_)" />
			</g>
			<g
   id="g132">
				<linearGradient
   id="SVGID_6_"
   gradientUnits="userSpaceOnUse"
   x1="344.04041"
   y1="477.7547"
   x2="395.24341"
   y2="480.20459">
					<stop
   offset="0"
   style="stop-color:#BB8547"
   id="stop117" />
					<stop
   offset="0.4492"
   style="stop-color:#BB8547"
   id="stop119" />
					<stop
   offset="0.4693"
   style="stop-color:#B88952"
   id="stop121" />
					<stop
   offset="0.5823"
   style="stop-color:#A79C8E"
   id="stop123" />
					<stop
   offset="0.6364"
   style="stop-color:#A1A3A5"
   id="stop125" />
					<stop
   offset="1"
   style="stop-color:#A1A3A5"
   id="stop127" />
				</linearGradient>
				<path
   class="st11"
   d="m 404.16,486.97 c 0,-0.05 -0.02,-5.3 0,-7.48 0.07,-3.76 -1.54,-5.5 -2.76,-6.26 l -6.15,-4.36 -3.81,-2.7 c -0.1,-0.6 -0.3,-1.22 -0.59,-1.86 0.05,-0.18 0.12,-0.36 0.16,-0.47 l 0.13,-0.34 0.08,-0.36 c 1.49,-6.88 0.15,-15.85 -1.45,-21.44 -0.69,-2.43 -0.31,-3.54 -0.05,-4.28 0.19,-0.54 0.47,-1.34 0.42,-2.35 0,-0.13 -0.01,-0.36 -0.03,-0.66 -0.18,-3.47 -0.19,-4.84 -0.18,-5.37 0.26,-1.05 0.18,-2.23 0.07,-4.03 -0.05,-0.83 -0.11,-1.76 -0.1,-2.38 0.03,-1.68 -0.6,-3.27 -1.78,-4.5 -2.51,-2.61 -6.9,-3.01 -10.85,-3.06 h -0.07 l -0.03,-0.01 h -4.36 l -0.03,0.01 h -0.07 c -3.94,0.05 -8.31,0.45 -10.83,3.05 -1.19,1.23 -1.83,2.83 -1.81,4.52 v 0.04 c 0.02,0.63 -0.04,1.61 -0.1,2.48 -0.11,1.68 -0.18,2.85 0.07,3.9 0.04,1.19 -0.12,4.91 -0.2,5.91 l -0.01,0.16 c -0.04,0.99 0.24,1.75 0.44,2.32 0.26,0.72 0.66,1.82 -0.04,4.26 -1.62,5.52 -2.97,14.46 -1.45,21.44 l 0.07,0.36 0.14,0.34 c 0.05,0.13 0.11,0.3 0.16,0.46 -0.3,0.65 -0.5,1.27 -0.6,1.87 l -3.81,2.7 -6.15,4.37 c -1.21,0.77 -2.81,2.49 -2.77,6.24 v 0.04 c 0.05,2.14 0,7.38 0,7.43 l -0.01,0.73 0.23,0.69 c 0.07,0.21 0.26,0.75 0.59,1.38 0.18,5.14 0.11,30.21 -0.01,52.19 1.45,0.19 2.91,0.34 4.38,0.45 0.11,-19.43 0.25,-53.58 -0.07,-54.03 -0.48,-0.63 -0.72,-1.37 -0.72,-1.37 0,0 0.05,-5.34 0,-7.57 -0.03,-2.26 0.8,-2.53 0.8,-2.53 l 7.53,-5.34 4.9,-3.49 -0.43,-0.5 c -0.53,-0.7 0.3,-1.63 0.61,-2.46 0.27,-0.83 -0.56,-2.91 -0.56,-2.91 -1.33,-6.12 -0.05,-14.41 1.38,-19.3 1.4,-4.88 -0.26,-6.97 -0.23,-7.62 0.05,-0.68 0.37,-6.64 0.12,-7.17 -0.25,-0.55 0.18,-3.66 0.12,-5.56 -0.05,-3.03 6.47,-3.08 8.38,-3.11 h 4.3 c 1.93,0.03 8.45,0.08 8.38,3.11 -0.03,1.9 0.37,5.01 0.12,5.56 -0.25,0.53 0.1,6.49 0.12,7.17 0.05,0.65 -1.6,2.73 -0.2,7.62 1.4,4.89 2.7,13.19 1.37,19.3 0,0 -0.83,2.08 -0.55,2.91 0.3,0.83 1.13,1.75 0.58,2.46 l -0.4,0.5 4.9,3.48 7.53,5.35 c 0,0 0.83,0.27 0.77,2.53 -0.02,2.23 0,7.57 0,7.57 0,0 -0.25,0.75 -0.7,1.37 -0.28,0.39 -0.21,25.35 -0.12,44.74 1.48,-0.75 2.94,-1.53 4.38,-2.37 -0.09,-18.67 -0.11,-36.81 0.04,-41.02 0.32,-0.62 0.5,-1.14 0.57,-1.34 l 0.23,-0.68 z"
   id="path130"
   inkscape:connector-curvature="0"
   style="fill:url(#SVGID_6_)" />
			</g>
		</g>
		<g
   id="g140">
			<path
   class="st7"
   d="m 455.31,466.45 v 0 0 c -1.89,12.65 -6.22,25.01 -13,36.33 -7.06,12.16 -16.14,21.73 -26.41,28.79 -38.43,28.09 -92.72,24.8 -127.44,-9.92 -0.56,-0.56 -1.12,-1.19 -1.68,-1.75 4.33,7.27 9.57,13.9 15.58,19.91 18.72,18.72 44.72,30.39 73.36,30.39 28.64,0 54.57,-11.67 73.36,-30.39 18.79,-18.79 30.39,-44.72 30.39,-73.43 h 21.24 l -33.33,-33.26 -33.33,33.26 h 21.24 v 0.07 z"
   id="path136"
   inkscape:connector-curvature="0"
   style="clip-rule:evenodd;fill:#bb8547;fill-rule:evenodd" />
			<path
   class="st8"
   d="m 294.69,469.67 v 0 -0.07 c 1.89,-12.65 6.22,-25.01 13,-36.26 7.06,-12.23 16.14,-21.73 26.41,-28.86 38.43,-28.09 92.65,-24.73 127.44,9.99 0.56,0.56 1.12,1.12 1.68,1.75 -4.4,-7.27 -9.64,-13.97 -15.58,-19.91 -18.79,-18.79 -44.72,-30.39 -73.36,-30.39 -28.64,0 -54.57,11.6 -73.36,30.39 -18.79,18.79 -30.39,44.72 -30.39,73.36 h -21.24 l 33.33,33.33 33.33,-33.33 z"
   id="path138"
   inkscape:connector-curvature="0"
   style="clip-rule:evenodd;fill:#a1a3a5;fill-rule:evenodd" />
		</g>
	</g>
</g>
</svg>