<svg width="551" height="285" viewBox="0 0 551 285" fill="none" xmlns="http://www.w3.org/2000/svg">
<path d="M111.199 231.472C110.862 229.787 112.884 230.461 111.199 231.472ZM119.961 273.934C118.95 277.641 115.917 272.923 113.558 273.934C113.895 270.901 119.287 272.923 119.961 273.934ZM197.471 267.531C193.09 267.868 191.068 265.509 191.068 261.128C194.438 260.791 197.471 260.791 198.819 262.476C199.156 264.498 197.134 265.172 197.471 267.531ZM173.544 261.128C169.837 260.791 167.478 259.443 168.489 254.725C173.881 253.04 176.577 258.095 173.544 261.128ZM159.39 261.128C157.705 259.443 157.705 255.062 159.39 253.377C162.086 253.04 162.76 254.388 164.445 254.725C164.782 258.769 163.097 260.791 159.39 261.128ZM111.199 262.476C109.514 262.476 108.166 261.802 107.155 261.128C108.84 254.725 114.906 252.703 117.602 246.974C119.287 247.311 118.613 250.344 118.613 252.366C124.005 248.659 135.126 248.996 136.474 256.073C144.899 257.084 146.921 252.029 155.683 253.377C154.335 257.084 152.987 261.128 150.628 263.487C150.291 268.879 157.705 266.52 155.683 273.934C151.976 275.619 148.606 272.586 147.932 278.989C137.148 280 133.441 274.271 125.016 276.293C124.342 270.901 127.375 269.216 129.06 266.183C123.331 265.846 122.657 270.227 116.254 268.879C114.906 263.824 111.536 265.846 111.199 262.476ZM65.3671 233.157C62.3341 237.538 69.7481 230.124 65.3671 233.157ZM240.944 229.45C241.618 230.124 240.27 228.776 240.944 229.45ZM44.8101 215.296C44.4731 213.274 46.1581 213.274 46.1581 211.589C47.1691 211.589 47.8431 211.589 48.8541 211.589C49.1911 213.611 47.5061 213.611 47.5061 215.296C46.8321 215.296 45.8211 215.296 44.8101 215.296ZM38.7441 208.893C39.0811 205.186 41.4401 203.164 44.8101 202.49C43.4621 205.186 42.7881 208.893 38.7441 208.893ZM263.86 180.922C259.479 177.215 259.816 185.64 263.86 180.922ZM256.109 173.508C256.783 174.182 255.435 172.834 256.109 173.508ZM46.1581 137.786C45.8211 139.471 45.1471 137.786 43.7991 137.786C44.1361 136.101 46.1581 136.438 46.1581 137.786ZM36.0481 130.035C36.0481 131.383 34.3631 131.046 33.6891 131.383C33.6891 130.035 35.0371 130.372 36.0481 130.035ZM37.3961 126.328C37.3961 125.317 37.3961 124.643 37.3961 123.632C38.0701 123.632 39.0811 123.632 39.7551 123.632C39.7551 124.643 39.7551 125.317 39.7551 126.328C39.0811 126.328 38.0701 126.328 37.3961 126.328ZM27.2861 112.174C27.2861 111.5 27.2861 110.489 27.2861 109.815C28.2971 109.815 29.6451 109.815 30.9931 109.815C30.9931 110.489 30.9931 111.5 30.9931 112.174C29.6451 112.174 28.2971 112.174 27.2861 112.174ZM34.7001 103.412C34.7001 102.401 34.7001 101.727 34.7001 100.716C35.7111 100.716 36.3851 100.716 37.3961 100.716C37.3961 101.727 37.3961 102.401 37.3961 103.412C36.3851 103.412 35.7111 103.412 34.7001 103.412ZM139.17 0.289978C75.4771 9.72598 39.0811 40.393 23.2421 94.65C21.2201 101.39 21.8941 110.826 18.1871 118.577C14.8171 125.991 9.76209 128.35 0.663086 131.383C7.74009 137.112 14.1431 136.775 16.8391 145.537C19.5351 152.614 17.8501 167.105 19.5351 175.867C30.3191 235.516 70.0851 278.315 139.17 283.707C219.376 290.11 277.34 252.366 280.373 165.083C268.915 165.083 245.999 165.757 229.486 165.757C227.464 202.49 217.017 228.776 191.068 239.56C153.324 255.399 112.884 243.941 93.3381 223.047C51.2131 177.889 62.6711 74.767 114.906 47.47C160.401 23.543 225.442 49.492 223.083 108.467C239.933 108.467 256.783 108.467 273.97 108.467C271.274 39.719 230.497 8.71497 167.141 0.289978C157.705 0.289978 148.269 0.289978 139.17 0.289978Z" fill="#BF9139"/>
<path d="M477.981 228.776C479.329 223.721 479.329 233.831 477.981 228.776ZM476.633 222.373C476.633 223.721 476.633 225.069 476.633 226.08C480.34 228.102 480.34 220.688 476.633 222.373ZM488.091 218.666C487.417 217.992 488.765 219.34 488.091 218.666ZM371.152 271.912C367.445 271.912 368.119 265.846 372.163 266.857C372.837 269.553 371.489 270.227 371.152 271.912ZM399.123 266.857C399.797 267.868 398.449 266.52 399.123 266.857ZM394.068 265.509C394.068 264.835 394.068 263.824 394.068 263.15C394.742 263.15 395.753 263.15 396.427 263.15C396.427 263.824 396.427 264.835 396.427 265.509C395.753 265.509 394.742 265.509 394.068 265.509ZM411.592 261.802C413.277 266.183 404.515 267.868 406.537 261.802C408.222 261.802 409.907 261.802 411.592 261.802ZM354.639 270.901C354.639 272.923 357.672 271.912 356.998 274.608C348.236 274.608 339.137 274.608 330.375 274.608C333.745 268.542 341.496 267.194 341.833 258.095C347.899 260.454 340.822 274.608 354.639 270.901C353.965 268.205 349.584 269.89 350.595 265.509C353.291 262.813 354.302 267.194 358.346 266.857C358.683 269.553 357.335 270.901 354.639 270.901ZM392.72 260.454C392.72 259.443 392.72 258.095 392.72 256.747C394.068 256.747 395.079 256.747 396.427 256.747C396.764 258.769 395.416 259.106 395.079 260.454C394.405 260.454 393.394 260.454 392.72 260.454ZM383.621 260.454C383.284 257.758 384.632 257.084 384.969 255.399C388.339 255.062 389.35 257.421 389.013 260.454C387.328 260.454 385.306 260.454 383.621 260.454ZM325.32 254.388C325.657 250.681 331.386 251.018 330.375 255.399C327.679 256.073 327.005 254.725 325.32 254.388ZM378.566 254.388C377.555 252.703 376.881 250.681 377.555 247.985C384.295 247.985 391.035 247.985 397.775 247.985C393.057 251.355 385.643 252.703 378.566 254.388ZM366.097 256.747C364.075 253.377 356.998 254.725 358.346 247.985C362.053 247.985 366.097 247.985 369.804 247.985C368.793 251.018 366.434 252.703 366.097 256.747ZM315.21 243.941C313.862 244.952 312.851 245.626 312.514 243.941C312.851 242.593 315.21 242.93 315.21 243.941ZM312.514 241.582C313.525 242.256 312.177 240.908 312.514 241.582ZM326.668 243.941C329.701 235.853 338.126 232.82 349.584 232.483C347.562 243.267 354.639 248.659 349.584 255.399C341.159 255.736 338.463 250.681 335.43 245.289C330.375 248.322 331.723 243.941 326.668 243.941ZM312.514 233.831C314.199 238.886 314.199 228.776 312.514 233.831ZM494.494 230.124C494.494 231.135 492.809 231.135 491.798 231.472C491.798 230.124 493.483 230.461 494.494 230.124ZM485.395 226.08C485.395 227.428 484.047 227.091 483.036 227.428C483.036 226.417 484.384 226.417 485.395 226.08ZM495.842 235.179C495.842 233.157 495.842 230.798 495.842 228.776C503.593 229.45 501.234 220.014 508.311 220.014C513.029 225.406 497.864 238.549 506.963 240.234C506.963 243.941 504.941 245.626 500.897 245.289C499.886 241.582 496.853 239.897 498.201 233.831C496.853 233.831 496.853 234.842 495.842 235.179C495.505 236.19 495.505 237.538 494.494 237.538C495.168 240.571 490.787 241.582 495.842 241.582C495.168 244.278 490.787 242.593 490.45 245.289C491.124 248.322 496.853 245.963 499.549 246.637C497.864 252.029 492.135 253.377 486.743 255.399C485.058 256.41 486.743 257.084 486.743 255.399C482.699 254.725 477.981 264.498 470.23 264.498C470.567 258.432 461.468 262.139 458.772 259.443C460.794 252.703 460.12 244.615 458.772 237.538C468.882 227.765 481.688 234.168 494.494 237.538C494.831 236.864 494.494 235.179 495.842 235.179ZM505.952 218.666C505.615 216.644 506.963 216.307 506.963 214.959C507.974 214.959 508.985 214.959 509.659 214.959C509.996 216.981 508.311 216.981 508.311 218.666C507.637 218.666 506.626 218.666 505.952 218.666ZM316.221 195.75C315.21 196.424 314.199 197.098 313.862 195.75C314.199 194.065 316.221 194.402 316.221 195.75ZM524.824 192.043C527.52 194.065 519.432 198.109 521.117 193.054C521.454 192.717 523.813 191.032 524.824 192.043ZM349.584 186.988C343.518 187.662 342.844 183.955 344.192 180.585C345.54 180.585 346.888 180.585 348.236 180.585C349.247 181.933 349.921 183.955 349.584 186.988ZM315.21 185.64C311.166 186.988 312.851 182.607 312.514 180.585C314.873 180.922 315.547 182.607 315.21 185.64ZM535.271 181.596C535.271 180.922 535.271 179.911 535.271 179.237C535.945 179.237 536.956 179.237 537.63 179.237C537.63 179.911 537.63 180.922 537.63 181.596C536.956 181.596 535.945 181.596 535.271 181.596ZM526.172 186.988C518.758 181.259 532.912 172.834 533.923 182.944C531.901 184.629 530.553 187.662 526.172 186.988ZM326.668 174.182C328.016 179.237 328.016 169.127 326.668 174.182ZM511.007 171.486C508.648 171.823 508.311 170.138 505.952 170.138C505.615 168.116 513.029 168.116 511.007 171.486ZM313.862 170.138C313.188 172.834 311.503 171.486 312.514 166.431C313.525 162.724 314.199 169.464 313.862 170.138ZM325.32 166.431C325.32 165.757 325.32 164.746 325.32 164.072C325.994 164.072 327.005 164.072 327.679 164.072C327.679 164.746 327.679 165.757 327.679 166.431C327.005 166.431 325.994 166.431 325.32 166.431ZM340.485 154.973C340.485 156.321 339.137 155.984 338.126 156.321C338.126 154.973 339.474 155.31 340.485 154.973ZM523.813 148.57C524.487 149.581 523.139 148.233 523.813 148.57ZM533.923 149.918C529.879 150.592 528.194 148.907 528.868 144.863C531.564 144.526 533.586 145.2 535.271 146.211C534.597 147.222 533.923 148.233 533.923 149.918ZM320.265 137.112C320.939 138.123 319.591 136.775 320.265 137.112ZM335.43 138.46C331.386 139.134 331.386 135.764 331.723 132.057C334.419 131.72 335.093 133.068 336.778 133.405C336.778 135.764 335.093 136.101 335.43 138.46ZM349.584 129.698C348.91 131.383 348.236 129.361 346.888 129.698C347.225 128.013 349.584 128.35 349.584 129.698ZM331.723 123.295C333.071 122.284 335.093 121.61 338.126 121.947C334.756 124.643 340.148 128.013 336.778 130.709C334.082 129.361 332.397 126.665 331.723 123.295ZM346.888 115.544C344.192 116.218 343.181 118.914 339.137 118.24C332.397 109.478 352.28 106.108 346.888 115.544C347.225 120.599 352.617 115.207 346.888 115.544ZM522.465 113.185C524.15 108.804 527.183 105.771 533.923 106.782C531.901 110.826 528.194 112.848 522.465 113.185ZM318.917 102.738C318.917 102.064 318.917 101.053 318.917 100.379C319.928 100.379 320.602 100.379 321.613 100.379C321.613 101.053 321.613 102.064 321.613 102.738C320.602 102.738 319.928 102.738 318.917 102.738ZM521.117 99.031C518.758 95.661 523.476 90.943 528.868 91.28C529.879 97.683 526.172 99.031 521.117 99.031ZM523.813 88.921C524.487 89.595 523.139 88.247 523.813 88.921ZM495.842 85.214C494.831 83.192 494.157 85.214 495.842 85.214C499.549 83.192 499.549 90.606 495.842 88.921C495.842 87.573 495.842 86.225 495.842 85.214ZM519.769 78.811C519.769 79.822 518.421 79.822 517.41 80.159C517.41 78.811 518.758 79.148 519.769 78.811ZM526.172 77.463C525.835 79.148 523.813 78.811 523.813 77.463C524.15 75.778 524.824 77.463 526.172 77.463ZM326.668 77.463C322.287 78.811 322.287 75.778 322.624 72.408C323.972 72.408 325.32 72.408 326.668 72.408C326.668 74.093 326.668 75.778 326.668 77.463ZM488.091 71.06C485.395 71.734 486.406 68.701 484.384 68.701C484.384 67.016 486.406 67.353 488.091 67.353C488.091 68.701 488.091 69.712 488.091 71.06ZM496.853 60.95C498.201 58.928 497.864 55.895 501.908 57.243C502.582 60.613 500.223 61.287 496.853 60.95ZM491.798 54.547C492.472 51.514 492.809 48.144 496.853 48.144C497.19 52.188 495.505 54.21 491.798 54.547ZM316.221 44.437C317.232 45.111 315.884 43.763 316.221 44.437ZM428.442 241.582C407.548 243.941 388.339 241.582 355.65 241.582C355.65 228.102 355.65 155.647 355.65 143.515C355.65 136.101 367.782 135.09 372.163 130.709C367.445 125.991 359.694 123.969 355.65 118.24C355.65 92.291 355.65 66.342 355.65 40.73C381.262 40.73 405.863 40.73 425.746 40.73C523.476 40.73 525.161 230.798 428.442 241.582ZM460.12 35.338C459.446 32.979 460.794 31.968 461.468 30.283C465.175 29.272 463.49 33.316 463.827 35.338C462.479 35.338 461.468 35.338 460.12 35.338ZM327.679 29.272C329.364 34.327 329.364 24.217 327.679 29.272ZM312.514 31.631C312.514 24.891 321.276 25.565 320.265 32.979C316.558 34.327 315.884 33.316 312.514 31.631ZM437.204 30.283C435.519 27.25 434.508 26.576 435.856 22.869C437.878 22.869 440.237 22.869 442.259 22.869C442.933 27.587 441.248 30.283 437.204 30.283ZM325.32 20.173C328.69 18.825 330.712 18.825 330.375 23.88C327.005 24.554 324.983 23.543 325.32 20.173ZM455.065 20.173C455.065 16.466 461.131 17.14 460.12 21.521C457.424 24.217 457.424 20.847 455.065 20.173ZM296.001 3.65997C302.404 6.69297 306.448 13.433 306.448 22.532C306.448 35.338 306.111 103.075 306.111 118.24C302.067 123.632 293.979 125.317 289.935 130.709C294.99 135.427 302.741 137.449 306.111 143.515C306.111 161.376 306.448 239.897 306.448 254.388C306.448 264.498 302.741 272.586 297.349 276.967C297.012 278.652 291.957 279.663 297.349 279.663C349.921 279.663 384.295 279.663 434.508 279.663C463.827 279.663 493.82 264.835 513.366 245.289C559.872 199.457 565.264 90.269 516.062 40.73C496.853 21.521 466.86 2.31197 432.149 2.31197C389.013 2.31197 349.921 2.31197 297.349 2.31197C296.675 2.64899 295.664 2.64899 296.001 3.65997Z" fill="#909295"/>
</svg>
